/* XPM */
static char * close_pressed_xpm[] = {
"23 16 103 2",
"  	c None",
". 	c #D0D4D6",
"+ 	c #9EA0A2",
"@ 	c #7A7C7D",
"# 	c #777979",
"$ 	c #9B9E9E",
"% 	c #A09897",
"& 	c #E9C1BF",
"* 	c #ECC6C3",
"= 	c #ECC8C6",
"- 	c #EBC8C6",
"; 	c #9C9F9F",
"> 	c #EAB1AC",
", 	c #EBB6B3",
"' 	c #E9B4B2",
") 	c #E9B6B4",
"! 	c #E9B7B6",
"~ 	c #E8B7B6",
"{ 	c #E9B1AC",
"] 	c #78797A",
"^ 	c #777879",
"/ 	c #EAB0AC",
"( 	c #E9B3B0",
"_ 	c #E8B6B4",
": 	c #E7B9B7",
"< 	c #E7BAB8",
"[ 	c #E9B0AC",
"} 	c #E8B4B2",
"| 	c #E6B7B6",
"1 	c #E6B9B9",
"2 	c #E5BBBB",
"3 	c #767778",
"4 	c #E9AFAC",
"5 	c #E7B3B0",
"6 	c #E6B6B6",
"7 	c #E4B8B8",
"8 	c #E4B9B9",
"9 	c #E8ADAA",
"0 	c #E6B2AF",
"a 	c #E5B5B4",
"b 	c #E4B7B7",
"c 	c #E3B8B8",
"d 	c #666060",
"e 	c #747677",
"f 	c #E7ACA8",
"g 	c #E6B1AF",
"h 	c #E4B4B3",
"i 	c #E3B6B6",
"j 	c #E3B7B7",
"k 	c #E8D4D4",
"l 	c #656060",
"m 	c #E7ABA8",
"n 	c #E5AFAE",
"o 	c #E4B3B2",
"p 	c #E3B4B4",
"q 	c #E8D2D2",
"r 	c #655F5F",
"s 	c #E7A9A6",
"t 	c #E5ADAC",
"u 	c #E4B0AF",
"v 	c #E3B2B2",
"w 	c #E3B3B3",
"x 	c #655E5E",
"y 	c #E7D2D2",
"z 	c #747676",
"A 	c #E4ACAA",
"B 	c #E3AFAE",
"C 	c #E2B0B0",
"D 	c #E2B2B2",
"E 	c #645E5E",
"F 	c #E7D0D0",
"G 	c #E7A6A2",
"H 	c #E5A9A6",
"I 	c #E2ADAC",
"J 	c #E2AEAE",
"K 	c #E8D0D0",
"L 	c #E7A49F",
"M 	c #E5A6A4",
"N 	c #E3A9A8",
"O 	c #E3AAA8",
"P 	c #E2ABAA",
"Q 	c #E6A29E",
"R 	c #E6A3A0",
"S 	c #E5A6A3",
"T 	c #E4A6A4",
"U 	c #E4A8A6",
"V 	c #E6A29D",
"W 	c #767878",
"X 	c #9EA0A0",
"Y 	c #958B89",
"Z 	c #E4A09C",
"` 	c #E5A39F",
" .	c #E5A3A0",
"..	c #9FA1A1",
"+.	c #D8D9DA",
"@.	c #A2A3A4",
"#.	c #77797A",
"$.	c #747577",
"%.	c #D5D7D9",
"&.	c #DCDFE0",
"*.	c #E1E3E4",
"=.	c #ECEEEE",
"-.	c #EEEEEE",
"  + @ # # # # # # # # # # # # # # # # # @ +   ",
"$ % & * = - - - - - - - - - - - - - = * & % ; ",
"# > , ' ) ! ~ ~ ~ ~ ~ ~ ~ ~ ~ ~ ~ ! ) ' , { ] ",
"^ / ( _ : < < < < < < < < < < < < < : _ ( / ^ ",
"^ [ } | 1 2 2 2 2 2 2 2 2 2 2 2 2 2 1 | } [ ^ ",
"3 4 5 6 7 8 8 8 8 8 8 8 8 8 8 8 8 8 7 6 5 4 3 ",
"3 9 0 a b c c c c d c c c d c c c c b a 0 9 3 ",
"e f g h i j j j j k l j l k j j j j i h g f e ",
"e m n o p i i i i i q r q i i i i i p o n m e ",
"e s t u v w w w w w x y x w w w w w v u t s e ",
"z s A B C D D D D E F D F E D D D D C B A s z ",
"z G H A I J J J J K J J J K J J J J I A H G z ",
"z L M N O P P P P P P P P P P P P P O N M L z ",
"e Q R S T U U U U U U U U U U U U U T S R V W ",
"X Y Z Q `  . . . . . . . . . . . . .` Q Z Y ..",
"  @.#.$.$.$.$.$.$.$.$.$.$.$.$.$.$.$.$.$.#.@.  "};
