/* XPM */
static char * close_inactive_xpm[] = {
"23 16 41 1",
" 	c None",
".	c #DFDFDF",
"+	c #BABABA",
"@	c #999999",
"#	c #959595",
"$	c #B6B6B6",
"%	c #B7B7B7",
"&	c #DBDBDB",
"*	c #DEDEDE",
"=	c #D4D4D4",
"-	c #D7D7D7",
";	c #D6D6D6",
">	c #969696",
",	c #949494",
"'	c #D5D5D5",
")	c #D3D3D3",
"!	c #D2D2D2",
"~	c #7D7D7D",
"{	c #939393",
"]	c #D1D1D1",
"^	c #E2E2E2",
"/	c #7C7C7C",
"(	c #D0D0D0",
"_	c #E1E1E1",
":	c #CFCFCF",
"<	c #7A7A7A",
"[	c #CDCDCD",
"}	c #CECECE",
"|	c #E0E0E0",
"1	c #929292",
"2	c #CCCCCC",
"3	c #CBCBCB",
"4	c #CACACA",
"5	c #B9B9B9",
"6	c #AEAEAE",
"7	c #C8C8C8",
"8	c #BCBCBC",
"9	c #E5E5E5",
"0	c #E8E8E8",
"a	c #EDEDED",
"b	c #EEEEEE",
" +@#################@+ ",
"$%&*.*************.*&%%",
"#=-;---------------;-=>",
",=';---------------;'=,",
",)''---------------''),",
",)='';;;;;;;;;;;;;''=),",
",!)==''''~'''~''''==)!,",
"{]!)=====^/=/^=====)!]{",
"{(!))=====^/^=====))!({",
"{(]]!!!!!!/_/!!!!!!]]({",
"{:((]]]]]<_]_<]]]]]((:{",
"{[}:(((((|(((|(((((:}[{",
"12[}}}}}}}}}}}}}}}}}[21",
"{3222[[[[[[[[[[[[[2224,",
"56733222222222222233765",
" 8#11111111111111111#8 "};
