/* XPM */
static char * close_prelight_xpm[] = {
"23 16 55 1",
" 	c None",
".	c #DEDEDE",
"+	c #BEBEBE",
"@	c #A2A2A2",
"#	c #9E9E9E",
"$	c #BCBCBC",
"%	c #B8B8B8",
"&	c #F0D3D3",
"*	c #EFD6D6",
"=	c #EFD7D7",
"-	c #BDBDBD",
";	c #9F9F9F",
">	c #F1C8C8",
",	c #F0CCCC",
"'	c #F0CBCB",
")	c #F0CDCD",
"!	c #F0CECE",
"~	c #A0A0A0",
"{	c #F1C7C7",
"]	c #F0CACA",
"^	c #F0CFCF",
"/	c #F0D0D0",
"(	c #F0D1D1",
"_	c #F1C6C6",
":	c #868686",
"<	c #9D9D9D",
"[	c #EFE0E0",
"}	c #F1C5C5",
"|	c #F1C9C9",
"1	c #EFDFDF",
"2	c #858585",
"3	c #F1C4C4",
"4	c #848484",
"5	c #F1C3C3",
"6	c #838383",
"7	c #EFDEDE",
"8	c #F1C1C1",
"9	c #EFDDDD",
"0	c #9C9C9C",
"a	c #F1BFBF",
"b	c #F1C2C2",
"c	c #F1BEBE",
"d	c #F1C0C0",
"e	c #F1BDBD",
"f	c #AFAFAF",
"g	c #F2BDBD",
"h	c #BFBFBF",
"i	c #E2E2E2",
"j	c #C1C1C1",
"k	c #9B9B9B",
"l	c #E0E0E0",
"m	c #E5E5E5",
"n	c #E7E7E7",
"o	c #EDEEEE",
"p	c #EEEEEE",
" +@#################@+ ",
"$%&*===============*&%-",
";>,')!!!!!!!!!!!!!)',>~",
"#{])^^^^^^^^^^^^^^^)]{#",
"#{'!/(((((((((((((/!'{#",
"#{]!^/////////////^!]{#",
"#_])^^^^^:^^^:^^^^^)]_#",
"<_],!^^^^[:^:[^^^^!,]_<",
"<}|')!!!!!121!!!!!)'|}<",
"<3{]',,,,,414,,,,,']{3<",
"<5_|]''''67'76'''']|_5<",
"<83_>||||9|||9||||>_38<",
"0ab}_______________}ba0",
"<cd8b5555555555555b8de#",
"+fgcadddddddddddddacgfh",
" j#kkkkkkkkkkkkkkkkk#j "};
