/* XPM */
static char * close_active_xpm[] = {
"23 16 107 2",
"  	c None",
". 	c #DCE0E2",
"+ 	c #B7BABC",
"@ 	c #979A9B",
"# 	c #939697",
"$ 	c #B5B9B9",
"% 	c #BDB3B1",
"& 	c #E6D3D0",
"* 	c #E9D6D2",
"= 	c #E9D6D4",
"- 	c #E8D7D4",
"; 	c #B6BABA",
"> 	c #949697",
", 	c #E6C8C3",
"' 	c #E7CAC7",
") 	c #E5C9C6",
"! 	c #E5CBC8",
"~ 	c #E5CBC9",
"{ 	c #E4CBC9",
"] 	c #E4C8C3",
"^ 	c #959798",
"/ 	c #939596",
"( 	c #E6C7C2",
"_ 	c #E4C8C5",
": 	c #E4CBC8",
"< 	c #E3CCCA",
"[ 	c #E3CDCB",
"} 	c #E5C7C2",
"| 	c #E3C9C6",
"1 	c #E2CBC9",
"2 	c #E2CCCC",
"3 	c #E1CDCD",
"4 	c #929496",
"5 	c #E4C6C2",
"6 	c #E2C8C5",
"7 	c #E1CAC9",
"8 	c #E0CBCB",
"9 	c #E0CCCC",
"0 	c #E3C5C1",
"a 	c #E1C7C4",
"b 	c #E0C9C8",
"c 	c #DFCACA",
"d 	c #DFCBCB",
"e 	c #837777",
"f 	c #919495",
"g 	c #E2C4C0",
"h 	c #E0C7C4",
"i 	c #DFC8C7",
"j 	c #DEC9C9",
"k 	c #DECACA",
"l 	c #E7DEDE",
"m 	c #827777",
"n 	c #E2C3BF",
"o 	c #E0C5C4",
"p 	c #DFC7C6",
"q 	c #DEC8C8",
"r 	c #E7DDDD",
"s 	c #827676",
"t 	c #E2C2BE",
"u 	c #E0C4C2",
"v 	c #DEC5C4",
"w 	c #DDC6C6",
"x 	c #DDC7C7",
"y 	c #827575",
"z 	c #E6DDDD",
"A 	c #919394",
"B 	c #E1C1BD",
"C 	c #DFC3C1",
"D 	c #DDC5C4",
"E 	c #DCC5C5",
"F 	c #DCC6C6",
"G 	c #817474",
"H 	c #E6DCDC",
"I 	c #E0BFBA",
"J 	c #DFC1BE",
"K 	c #DEC3C1",
"L 	c #DDC4C3",
"M 	c #DCC4C4",
"N 	c #E6DBDB",
"O 	c #909394",
"P 	c #E0BEB8",
"Q 	c #DFBFBC",
"R 	c #DDC1BF",
"S 	c #DDC2C0",
"T 	c #DCC2C1",
"U 	c #DFBCB7",
"V 	c #DFBDB9",
"W 	c #DEBFBB",
"X 	c #DDBFBC",
"Y 	c #DDC0BD",
"Z 	c #DEBCB6",
"` 	c #929596",
" .	c #B7B9BA",
"..	c #B7A8A6",
"+.	c #DBBAB6",
"@.	c #DEBDB8",
"#.	c #DEBDB9",
"$.	c #B8BABA",
"%.	c #E0E1E2",
"&.	c #BABCBD",
"*.	c #939698",
"=.	c #8F9294",
"-.	c #DFE1E3",
";.	c #E3E6E7",
">.	c #E6E8E9",
",.	c #EDEEEE",
"'.	c #EEEEEE",
"  + @ # # # # # # # # # # # # # # # # # @ +   ",
"$ % & * = - - - - - - - - - - - - - = * & % ; ",
"> , ' ) ! ~ { { { { { { { { { { { ~ ! ) ' ] ^ ",
"/ ( _ : < [ [ [ [ [ [ [ [ [ [ [ [ [ < : _ ( / ",
"/ } | 1 2 3 3 3 3 3 3 3 3 3 3 3 3 3 2 1 | } / ",
"4 5 6 7 8 9 9 9 9 9 9 9 9 9 9 9 9 9 8 7 6 5 4 ",
"4 0 a b c d d d d e d d d e d d d d c b a 0 4 ",
"f g h i j k k k k l m k m l k k k k j i h g f ",
"f n o p q j j j j j r s r j j j j j q p o n f ",
"f t u v w x x x x x y z y x x x x x w v u t f ",
"A B C D E F F F F G H F H G F F F F E D C B A ",
"A I J K L M M M M N M M M N M M M M L K J I A ",
"O P Q R S T T T T T T T T T T T T T S R Q P O ",
"f U V W X Y Y Y Y Y Y Y Y Y Y Y Y Y X W V Z ` ",
" ...+.U @.#.#.#.#.#.#.#.#.#.#.#.#.#.@.U +...$.",
"  &.*.=.=.=.=.=.=.=.=.=.=.=.=.=.=.=.=.=.*.&.  "};
