/* XPM */
static char * close_pressed_xpm[] = {
"16 16 31 1",
" 	c None",
".	c #D17979",
"+	c #DFC0C0",
"@	c #D17878",
"#	c #DFC2C2",
"$	c #E1C5C5",
"%	c #E0C4C4",
"&	c #E0C6C6",
"*	c #E3CCCC",
"=	c #CF7373",
"-	c #E4CFCF",
";	c #E3CECE",
">	c #E5D2D2",
",	c #E4D0D0",
"'	c #E6D5D5",
")	c #E5D3D3",
"!	c #CE7171",
"~	c #E7D8D8",
"{	c #E8DBDB",
"]	c #E8DADA",
"^	c #EADFDF",
"/	c #E9DDDD",
"(	c #CE7070",
"_	c #EBE0E0",
":	c #EBE2E2",
"<	c #CD6E6E",
"[	c #EEE9E9",
"}	c #EDE8E8",
"|	c #D78C8C",
"1	c #D68A8A",
"2	c #EEEEEE",
".++++++++++++++.",
"@##############@",
"@$%%%%%%%%%%%%$@",
"@&&&&&&&&&&&&&&@",
"@**************@",
"=-;;;;;;;;;;;;;=",
"=>,,,,,,,,,,,,,=",
"='))))))))))))'!",
"!~''''''''''''~!",
"!{]]]]]]]]]]]]{!",
"!^////////////^(",
"!______________(",
"(::::::::::::::<",
"([}}}}}}}}}}}}[<",
"|(<<<<<<<<<<<<<1",
"2222222222222222"};
