/* XPM */
static char * hide_pressed_xpm[] = {
"16 16 40 1",
" 	c None",
".	c #B0CCE4",
"+	c #C1D1E0",
"@	c #C0D0E0",
"#	c #538EC4",
"$	c #C3D2E1",
"%	c #528EC4",
"&	c #C6D4E1",
"*	c #C4D3E1",
"=	c #C6D5E1",
"-	c #CCD8E4",
";	c #508DC4",
">	c #CFDAE5",
",	c #CED9E4",
"'	c #4E8BC3",
")	c #D2DCE5",
"!	c #D1DBE5",
"~	c #D6DEE6",
"{	c #D4DDE6",
"]	c #4C8AC1",
"^	c #D8E0E7",
"/	c #4C89C0",
"(	c #DBE3E8",
"_	c #DAE2E8",
":	c #E0E6EA",
"<	c #DDE4E9",
"[	c #4B89C0",
"}	c #4988C1",
"|	c #E3E7EB",
"1	c #4887C0",
"2	c #E9ECEE",
"3	c #E8EBED",
"4	c #4886C0",
"5	c #A8C6E2",
"6	c #A8C6E1",
"7	c #518DC3",
"8	c #84ACCF",
"9	c #689AC7",
"0	c #6799C5",
"a	c #81ABCD",
".+@@@@@@@@@@@@@.",
"#$$$$$$$$$$$$$$#",
"%&************&%",
"%==============%",
"%--------------%",
";>,,,,,,,,,,,,,;",
"')!!!!!!!!!!!!!'",
"'~{{{{{{{{{{{{~]",
"]^~~~~~~~~~~~~^/",
"/(____________(/",
"/:<<<<<<<<<<<<:[",
"/::::::::::::::}",
"[||||||||||||||1",
"}233333333333324",
"#566666666666667",
"890000000000000a"};
