/* XPM */
static char * hide_prelight_xpm[] = {
"23 16 43 1",
" 	c None",
".	c #DCEFEF",
"+	c #B7B7B7",
"@	c #979797",
"#	c #939393",
"$	c #B5B5B5",
"%	c #BBBBBB",
"&	c #E2E2EE",
"*	c #E6EEEE",
"=	c #B6B6B6",
"-	c #949494",
";	c #E1E1EE",
">	c #E2EEEE",
",	c #E1EEEE",
"'	c #E0E0EE",
")	c #959595",
"!	c #E0EEEE",
"~	c #E0EFEF",
"{	c #929292",
"]	c #DEEFEF",
"^	c #DDEFEF",
"/	c #919191",
"(	c #DBEFEF",
"_	c #DAEFEF",
":	c #D8EFEF",
"<	c #D7EFEF",
"[	c #7E7E7E",
"}	c #D5EFEF",
"|	c #909090",
"1	c #D4EFEF",
"2	c #D2EFEF",
"3	c #D3EFEF",
"4	c #B1B1B1",
"5	c #D0F0F0",
"6	c #B8B8B8",
"7	c #E0E0E0",
"8	c #BABABA",
"9	c #8F8F8F",
"0	c #DFDFEF",
"a	c #E3EEEE",
"b	c #EDEEEE",
"c	c #EEEEEE",
"d	c #E4EEEE",
" +@#################@+ ",
"$%&*****************&%=",
"-;>,,,,,,,,,,,,,,,,,>')",
"#!!!!!!!!!!!!!!!!!!!!!#",
"#~~~~~~~~~~~~~~~~~~~~~#",
"{]]]]]]]]]]]]]]]]]]]]]{",
"{^^^^^^^^^^^^^^^^^^^^^{",
"/(((((((((((((((((((((/",
"/_____________________/",
"/:::::::::::::::::::::/",
"/<<<<<<<<[[[[<<<<<<<<</",
"/}}}}}}}}>>>>}}}}}}}}}/",
"|111111111111111111111|",
"/233333333333333333332{",
"+4522222222222222222546",
" 8#99999999999999999#8 "};
