/* XPM */
static char * close_inactive_xpm[] = {
"21 20 59 1",
" 	c None",
".	c #858585",
"+	c #8E8E8E",
"@	c #8F8F8E",
"#	c #8F8E8E",
"$	c #8E8E8F",
"%	c #989898",
"&	c #86858A",
"*	c #7D7982",
"=	c #7D7A83",
"-	c #88878B",
";	c #989897",
">	c #A1A1A1",
",	c #A1A2A1",
"'	c #8B898E",
")	c #9895A0",
"!	c #CCC9D0",
"~	c #C7C5CC",
"{	c #918D98",
"]	c #8E8C91",
"^	c #A2A1A2",
"/	c #AAABAA",
"(	c #A8A8A8",
"_	c #827E88",
":	c #CCCBD1",
"<	c #D2D0D5",
"[	c #C5C2C9",
"}	c #84818A",
"|	c #AAAAAA",
"1	c #AAAAAB",
"2	c #B4B4B4",
"3	c #B1B0B1",
"4	c #85828B",
"5	c #C4C2CA",
"6	c #BEBBC4",
"7	c #86838C",
"8	c #BDBDBD",
"9	c #BDBDBE",
"0	c #9B999F",
"a	c #9F9BA6",
"b	c #BDBBC4",
"c	c #BCB9C2",
"d	c #A09EA3",
"e	c #BEBDBE",
"f	c #C7C7C7",
"g	c #C6C6C6",
"h	c #ACA9B4",
"i	c #88848E",
"j	c #8B8891",
"k	c #AEABB5",
"l	c #D0D0D0",
"m	c #DDDDDD",
"n	c #EBEBEB",
"o	c #EAEAEA",
"p	c #DADADA",
"q	c #D0D1D0",
"r	c #D9D9DA",
"s	c #DAD9D9",
"t	c #D9D9D9",
"                     ",
"                     ",
"                     ",
"                     ",
"                     ",
"                     ",
"        ....         ",
"       +@#$+@        ",
"      %%&*=-;%       ",
"     >,')!~{]>^      ",
"     /(_:<<[}|1      ",
"     2345~~6722      ",
"     890abc)d8e      ",
"      fghijkff       ",
"       lmnopq        ",
"        rstr         ",
"                     ",
"                     ",
"                     ",
"                     "};
