/* XPM */
static char * hide_pressed_xpm[] = {
"23 16 50 1",
" 	c None",
".	c #DCE0E2",
"+	c #B7BABC",
"@	c #979A9B",
"#	c #939697",
"$	c #B5B8B8",
"%	c #BBBEBE",
"&	c #E2E4E5",
"*	c #E6E9E9",
"=	c #B6B9B9",
"-	c #949697",
";	c #E1E3E5",
">	c #E2E5E7",
",	c #E1E4E6",
"'	c #E0E2E4",
")	c #959798",
"!	c #939596",
"~	c #E0E3E5",
"{	c #929496",
"]	c #DEE2E3",
"^	c #DDE1E2",
"/	c #919495",
"(	c #DBE0E2",
"_	c #DADFE1",
":	c #D8DDE0",
"<	c #919394",
"[	c #D7DCDF",
"}	c #7E8184",
"|	c #D5DBDE",
"1	c #E2E5E6",
"2	c #909394",
"3	c #D4DADD",
"4	c #D2D8DB",
"5	c #D3D9DC",
"6	c #D2D8DA",
"7	c #929596",
"8	c #B7B9BA",
"9	c #B1B6B7",
"0	c #D0D5D8",
"a	c #B8BABA",
"b	c #E0E0E1",
"c	c #BABCBD",
"d	c #939698",
"e	c #8F9294",
"f	c #DFE1E2",
"g	c #E3E6E7",
"h	c #E6E8E9",
"i	c #EDEEEE",
"j	c #EEEEEE",
"k	c #E4E6E8",
" +@#################@+ ",
"$%&*****************&%=",
"-;>,,,,,,,,,,,,,,,,,>')",
"!~~~~~~~~~~~~~~~~~~~~~!",
"!'''''''''''''''''''''!",
"{]]]]]]]]]]]]]]]]]]]]]{",
"{^^^^^^^^^^^^^^^^^^^^^{",
"/(((((((((((((((((((((/",
"/_____________________/",
"/:::::::::::::::::::::/",
"<[[[[[[[[}}}}[[[[[[[[[<",
"<||||||||1111|||||||||<",
"23333333333333333333332",
"/4555555555555555555567",
"8904444444444444444409a",
" cdeeeeeeeeeeeeeeeeedc "};
