/* XPM */
static char * hide_prelight_xpm[] = {
"16 16 32 1",
" 	c None",
".	c #5390C4",
"+	c #F7FBFD",
"@	c #F7FAFC",
"#	c #528EC4",
"$	c #F1F7FB",
"%	c #EEF5FA",
"&	c #EEF3F9",
"*	c #EBF2F8",
"=	c #E9F1F7",
"-	c #E8F0F7",
";	c #4E8BC3",
">	c #E7EFF7",
",	c #E4EDF6",
"'	c #E2EBF5",
")	c #DFEAF4",
"!	c #DEE9F3",
"~	c #4C89C0",
"{	c #DCE8F3",
"]	c #DAE6F2",
"^	c #D9E6F2",
"/	c #D4E2F0",
"(	c #4988C1",
"_	c #D2E2F0",
":	c #D1E0EE",
"<	c #CFDFEF",
"[	c #4886C0",
"}	c #CDDEEE",
"|	c #CCDDEE",
"1	c #689DCB",
"2	c #659CC9",
"3	c #EEEEEE",
".+@@@@@@@@@@@@+.",
"#$$$$$$$$$$$$$$#",
"#%%%%%%%%%%%%%%#",
"#&************&#",
"#=------------=#",
";>,,,,,,,,,,,,>;",
";,'''''''''''',;",
";)!!!!!!!!!!!!!~",
"~{]]]]]]]]]]]]]~",
"~^^^^^^^^^^^^^^~",
"~//////////////(",
"~_::::::::::::_(",
"(<<<<<<<<<<<<<<[",
"(}|||||||||||||[",
"1([[[[[[[[[[[[[2",
"3333333333333333"};
