/* XPM */
static char * hide_inactive_xpm[] = {
"23 16 36 1",
" 	c None",
".	c #DFDFDF",
"+	c #BABABA",
"@	c #999999",
"#	c #959595",
"$	c #B6B6B6",
"%	c #BDBDBD",
"&	c #E4E4E4",
"*	c #E8E8E8",
"=	c #B7B7B7",
"-	c #E3E3E3",
";	c #E5E5E5",
">	c #E2E2E2",
",	c #969696",
"'	c #949494",
")	c #E1E1E1",
"!	c #E0E0E0",
"~	c #939393",
"{	c #DEDEDE",
"]	c #DDDDDD",
"^	c #DCDCDC",
"/	c #DBDBDB",
"(	c #818181",
"_	c #DADADA",
":	c #929292",
"<	c #D9D9D9",
"[	c #D7D7D7",
"}	c #D8D8D8",
"|	c #D6D6D6",
"1	c #B9B9B9",
"2	c #B4B4B4",
"3	c #D4D4D4",
"4	c #BCBCBC",
"5	c #EDEDED",
"6	c #EEEEEE",
"7	c #E6E6E6",
" +@#################@+ ",
"$%&*****************&%=",
"#-;&&&&&&&&&&&&&&&&&;>,",
"'---------------------'",
"'>>>>>>>>>>>>>>>>>>>>>'",
"')))))))))))))))))))))'",
"'!!!!!!!!!!!!!!!!!!!!!'",
"~{{{{{{{{{{{{{{{{{{{{{~",
"~]]]]]]]]]]]]]]]]]]]]]~",
"~^^^^^^^^^^^^^^^^^^^^^~",
"~////////((((/////////~",
"~________&&&&_________~",
":<<<<<<<<<<<<<<<<<<<<<:",
"~[}}}}}}}}}}}}}}}}}}}|'",
"123[[[[[[[[[[[[[[[[[321",
" 4#:::::::::::::::::#4 "};
