/* XPM */
static char * left_active_xpm[] = {
"8 21 3 1",
" 	c None",
".	c #BDBDBD",
"+	c #EEEEEE",
"      .+",
"      .+",
"      .+",
"      .+",
"      .+",
"      .+",
"      .+",
"      .+",
"      .+",
"      .+",
"      .+",
"      .+",
"      .+",
"      .+",
"      .+",
"      .+",
"      .+",
"      .+",
"      .+",
"      .+",
"      .+"};
