/* XPM */
static char * left_inactive_xpm[] = {
"8 21 3 1",
" 	c None",
".	c #CCCCCC",
"+	c #EEEEEE",
"      .+",
"      .+",
"      .+",
"      .+",
"      .+",
"      .+",
"      .+",
"      .+",
"      .+",
"      .+",
"      .+",
"      .+",
"      .+",
"      .+",
"      .+",
"      .+",
"      .+",
"      .+",
"      .+",
"      .+",
"      .+"};
