/* XPM */
static char * maximize_inactive_xpm[] = {
"16 16 26 1",
" 	c None",
".	c #CDCDCD",
"+	c #F2F2F2",
"@	c #F6F6F6",
"#	c #CCCCCC",
"$	c #F5F5F5",
"%	c #F4F4F4",
"&	c #F3F3F3",
"*	c #CACACA",
"=	c #F1F1F1",
"-	c #C9C9C9",
";	c #F0F0F0",
">	c #EEEEEE",
",	c #EDEDED",
"'	c #C8C8C8",
")	c #ECECEC",
"!	c #EAEAEA",
"~	c #C7C7C7",
"{	c #E9E9E9",
"]	c #C6C6C6",
"^	c #E8E8E8",
"/	c #E5E5E5",
"(	c #C5C5C5",
"_	c #E6E6E6",
":	c #D4D4D4",
"<	c #D3D3D3",
".+@@@@@@@@@@@@@.",
"#$$$$$$$$$$$$$$#",
"#%&&&&&&&&&&&&&#",
"*&+++++++++++++*",
"*==============*",
"-;;;;;;;;;;;;;;-",
"-;>>>>>>>>>>>>>-",
"->,,,,,,,,,,,,,'",
"'>)))))))))))))'",
"')!!!!!!!!!!!!!~",
"~!{{{{{{{{{{{{{]",
"~!^^^^^^^^^^^^^]",
"]^/////////////(",
"]______________(",
":](((((((((((((<",
">>>>>>>>>>>>>>>>"};
