/* XPM */
static char * maximize_active_xpm[] = {
"23 16 52 1",
" 	c None",
".	c #DCE0E2",
"+	c #B7BABC",
"@	c #979A9B",
"#	c #939697",
"$	c #B5B9B9",
"%	c #BBBEBE",
"&	c #E2E4E5",
"*	c #E6E9E9",
"=	c #B6BABA",
"-	c #949697",
";	c #E1E3E5",
">	c #E2E5E7",
",	c #E1E4E6",
"'	c #E0E2E4",
")	c #959798",
"!	c #939596",
"~	c #E0E3E5",
"{	c #929496",
"]	c #DEE2E4",
"^	c #DDE1E3",
"/	c #818485",
"(	c #919495",
"_	c #DBE0E2",
":	c #808484",
"<	c #E5E7E8",
"[	c #DADFE1",
"}	c #D8DDE0",
"|	c #7E8184",
"1	c #919394",
"2	c #D7DCDF",
"3	c #D5DBDE",
"4	c #E2E5E6",
"5	c #909394",
"6	c #D4DADD",
"7	c #D2D8DB",
"8	c #D3D9DC",
"9	c #D2D8DA",
"0	c #929596",
"a	c #B7B9BA",
"b	c #B1B6B8",
"c	c #D0D6D9",
"d	c #B8BABA",
"e	c #E0E1E2",
"f	c #BABCBD",
"g	c #939698",
"h	c #8F9294",
"i	c #DFE1E3",
"j	c #E4E7E8",
"k	c #E6E8E9",
"l	c #EDEEEE",
"m	c #EEEEEE",
" +@#################@+ ",
"$%&*****************&%=",
"-;>,,,,,,,,,,,,,,,,,>')",
"!~~~~~~~~~~~~~~~~~~~~~!",
"!~~~~~~~~~~~~~~~~~~~~~!",
"{]]]]]]]]]]]]]]]]]]]]]{",
"{^^^^^^^^/////^^^^^^^^{",
"(________:<<<:________(",
"([[[[[[[[:[[[:[[[[[[[[(",
"(}}}}}}}}|}}}|}}}}}}}}(",
"122222222|||||222222221",
"13333333344444333333331",
"56666666666666666666665",
"(7888888888888888888890",
"abc77777777777777777cbd",
" fghhhhhhhhhhhhhhhhhgf "};
