/* XPM */
static char * maximize_inactive_xpm[] = {
"23 16 39 1",
" 	c None",
".	c #DFDFDF",
"+	c #BABABA",
"@	c #999999",
"#	c #959595",
"$	c #B6B6B6",
"%	c #BDBDBD",
"&	c #E4E4E4",
"*	c #E8E8E8",
"=	c #B7B7B7",
"-	c #E3E3E3",
";	c #E5E5E5",
">	c #E2E2E2",
",	c #969696",
"'	c #949494",
")	c #E1E1E1",
"!	c #E0E0E0",
"~	c #838383",
"{	c #939393",
"]	c #DEDEDE",
"^	c #828282",
"/	c #E7E7E7",
"(	c #DDDDDD",
"_	c #DCDCDC",
":	c #818181",
"<	c #DBDBDB",
"[	c #DADADA",
"}	c #929292",
"|	c #D9D9D9",
"1	c #D7D7D7",
"2	c #D8D8D8",
"3	c #D6D6D6",
"4	c #B9B9B9",
"5	c #B4B4B4",
"6	c #D4D4D4",
"7	c #BCBCBC",
"8	c #E6E6E6",
"9	c #EDEDED",
"0	c #EEEEEE",
" +@#################@+ ",
"$%&*****************&%=",
"#-;&&&&&&&&&&&&&&&&&;>,",
"'---------------------'",
"'>>>>>>>>>>>>>>>>>>>>>'",
"')))))))))))))))))))))'",
"'!!!!!!!!~~~~~!!!!!!!!'",
"{]]]]]]]]^///^]]]]]]]]{",
"{((((((((^(((^(((((((({",
"{________:___:________{",
"{<<<<<<<<:::::<<<<<<<<{",
"{[[[[[[[[&&&&&[[[[[[[[{",
"}|||||||||||||||||||||}",
"{122222222222222222223'",
"45611111111111111111654",
" 7#}}}}}}}}}}}}}}}}}#7 "};
