/* XPM */
static char * menu_prelight_xpm[] = {
"23 16 42 1",
" 	c None",
".	c #DCEFEF",
"+	c #B7B7B7",
"@	c #979797",
"#	c #939393",
"$	c #B5B5B5",
"%	c #BBBBBB",
"&	c #E2E2EE",
"*	c #E6EEEE",
"=	c #B6B6B6",
"-	c #949494",
";	c #E1E1EE",
">	c #E2EEEE",
",	c #E1EEEE",
"'	c #E0E0EE",
")	c #959595",
"!	c #E0EEEE",
"~	c #E0EFEF",
"{	c #929292",
"]	c #DEEFEF",
"^	c #DDEFEF",
"/	c #919191",
"(	c #DBEFEF",
"_	c #DAEFEF",
":	c #D8EFEF",
"<	c #D7EFEF",
"[	c #D5EFEF",
"}	c #909090",
"|	c #D4EFEF",
"1	c #D2EFEF",
"2	c #D3EFEF",
"3	c #B1B1B1",
"4	c #D0F0F0",
"5	c #B8B8B8",
"6	c #E0E0E0",
"7	c #BABABA",
"8	c #8F8F8F",
"9	c #DFDFEF",
"0	c #E3EEEE",
"a	c #EDEEEE",
"b	c #EEEEEE",
"c	c #E4EEEE",
" +@#################@+ ",
"$%&*****************&%=",
"-;>,,,,,,,,,,,,,,,,,>')",
"#!!!!!!!!!!!!!!!!!!!!!#",
"#~~~~~~~~~~~~~~~~~~~~~#",
"{]]]]]]]]]]]]]]]]]]]]]{",
"{^^^^^^^^^^^^^^^^^^^^^{",
"/(((((((((((((((((((((/",
"/_____________________/",
"/:::::::::::::::::::::/",
"/<<<<<<<<::::<<<<<<<<</",
"/[[[[[[[[::::[[[[[[[[[/",
"}|||||||||||||||||||||}",
"/122222222222222222221{",
"+3411111111111111111435",
" 7#88888888888888888#7 "};
