/* XPM */
static char * menu_active_xpm[] = {
"23 16 48 1",
" 	c None",
".	c #DCE0E2",
"+	c #B7BABC",
"@	c #979A9B",
"#	c #939697",
"$	c #B5B9B9",
"%	c #BBBEBE",
"&	c #E2E4E5",
"*	c #E6E9E9",
"=	c #B6BABA",
"-	c #949697",
";	c #E1E3E5",
">	c #E2E5E7",
",	c #E1E4E6",
"'	c #E0E2E4",
")	c #959798",
"!	c #939596",
"~	c #E0E3E5",
"{	c #929496",
"]	c #DEE2E4",
"^	c #DDE1E3",
"/	c #919495",
"(	c #DBE0E2",
"_	c #DADFE1",
":	c #D8DDE0",
"<	c #919394",
"[	c #D7DCDF",
"}	c #D5DBDE",
"|	c #909394",
"1	c #D4DADD",
"2	c #D2D8DB",
"3	c #D3D9DC",
"4	c #D2D8DA",
"5	c #929596",
"6	c #B7B9BA",
"7	c #B1B6B8",
"8	c #D0D6D9",
"9	c #B8BABA",
"0	c #E0E1E2",
"a	c #BABCBD",
"b	c #939698",
"c	c #8F9294",
"d	c #DFE1E3",
"e	c #E3E6E7",
"f	c #E6E8E9",
"g	c #EDEEEE",
"h	c #EEEEEE",
"i	c #E4E7E8",
" +@#################@+ ",
"$%&*****************&%=",
"-;>,,,,,,,,,,,,,,,,,>')",
"!~~~~~~~~~~~~~~~~~~~~~!",
"!~~~~~~~~~~~~~~~~~~~~~!",
"{]]]]]]]]]]]]]]]]]]]]]{",
"{^^^^^^^^^^^^^^^^^^^^^{",
"/(((((((((((((((((((((/",
"/_____________________/",
"/:::::::::::::::::::::/",
"<[[[[[[[[::::[[[[[[[[[<",
"<}}}}}}}}::::}}}}}}}}}<",
"|111111111111111111111|",
"/2333333333333333333345",
"67822222222222222222879",
" abcccccccccccccccccba "};
