/* XPM */
static char * menu_prelight_xpm[] = {
"16 16 28 1",
" 	c None",
".	c #A4A4A4",
"+	c #FAFAFA",
"@	c #F9F9F9",
"#	c #F6F6F6",
"$	c #F4F4F4",
"%	c #F3F3F3",
"&	c #F1F1F1",
"*	c #F0F0F0",
"=	c #EFEFEF",
"-	c #A1A1A1",
";	c #EDEDED",
">	c #EBEBEB",
",	c #E9E9E9",
"'	c #E8E8E8",
")	c #9F9F9F",
"!	c #E7E7E7",
"~	c #E6E6E6",
"{	c #E5E5E5",
"]	c #E2E2E2",
"^	c #E1E1E1",
"/	c #E0E0E0",
"(	c #DFDFDF",
"_	c #9D9D9D",
":	c #DDDDDD",
"<	c #B2B2B2",
"[	c #AFAFAF",
"}	c #EEEEEE",
".+@@@@@@@@@@@@+.",
".##############.",
".$$$$$$$$$$$$$$.",
".%&&&&&&&&&&&&%.",
".*============*.",
"-=;;;;;;;;;;;;=-",
"-;>>>>>>>>>>>>;-",
"-,''''''''''''')",
")!~~~~~~~~~~~~~)",
"){{{{{{{{{{{{{{)",
")]]]]]]]]]]]]]])",
")^////////////^)",
")((((((((((((((_",
")::::::::::::::_",
"<)_____________[",
"}}}}}}}}}}}}}}}}"};
