/* XPM */
static char * menu_pressed_xpm[] = {
"21 20 59 1",
" 	c None",
".	c #858585",
"+	c #8E8E8E",
"@	c #8F8F8F",
"#	c #989898",
"$	c #727280",
"%	c #5B5D7B",
"&	c #5E607C",
"*	c #7A7880",
"=	c #A1A1A1",
"-	c #A2A2A2",
";	c #747381",
">	c #5B6A99",
",	c #5980CF",
"'	c #5C81CC",
")	c #5C648E",
"!	c #7F7C84",
"~	c #AAACAB",
"{	c #A8A8A8",
"]	c #55597D",
"^	c #4572CD",
"/	c #3471D6",
"(	c #3571D5",
"_	c #4D77CD",
":	c #5E5D79",
"<	c #AAAAAA",
"[	c #ABAAAC",
"}	c #B4B4B4",
"|	c #B0AFB1",
"1	c #495381",
"2	c #235EC9",
"3	c #1A64D4",
"4	c #1A64D2",
"5	c #2D64C9",
"6	c #555B7F",
"7	c #BDBDBD",
"8	c #BEBDBF",
"9	c #6B7291",
"0	c #3463BA",
"a	c #246ED2",
"b	c #266AD0",
"c	c #3C62B0",
"d	c #7B7D95",
"e	c #BFBDBE",
"f	c #C7C7C7",
"g	c #BEBFC4",
"h	c #7080AE",
"i	c #426CAC",
"j	c #466CAA",
"k	c #7C87AE",
"l	c #C3C3C7",
"m	c #D0D0D0",
"n	c #E5E4E3",
"o	c #F7F7F7",
"p	c #F6F6F6",
"q	c #DFDFDF",
"r	c #D0D2D1",
"s	c #DADADA",
"t	c #D9D9D9",
"                     ",
"                     ",
"                     ",
"                     ",
"                     ",
"                     ",
"        ....         ",
"       +@@@+@        ",
"      ##$%&*##       ",
"     =-;>,')!=-      ",
"     ~{]^/(_:<[      ",
"     }|123456}}      ",
"     7890abcd7e      ",
"      fghijklf       ",
"       mnopqr        ",
"        ssts         ",
"                     ",
"                     ",
"                     ",
"                     "};
