/* XPM */
static char * menu_pressed_xpm[] = {
"16 16 25 1",
" 	c None",
".	c #A4A4A4",
"+	c #D0D0D0",
"@	c #D2D2D2",
"#	c #D4D4D4",
"$	c #D8D8D8",
"%	c #A1A1A1",
"&	c #DADADA",
"*	c #D9D9D9",
"=	c #DCDCDC",
"-	c #DBDBDB",
";	c #DEDEDE",
">	c #DDDDDD",
",	c #9F9F9F",
"'	c #E0E0E0",
")	c #E1E1E1",
"!	c #E5E5E5",
"~	c #E3E3E3",
"{	c #E7E7E7",
"]	c #9D9D9D",
"^	c #EBEBEB",
"/	c #EAEAEA",
"(	c #B2B2B2",
"_	c #AFAFAF",
":	c #EEEEEE",
".++++++++++++++.",
".@@@@@@@@@@@@@@.",
".#@@@@@@@@@@@@#.",
".##############.",
".$$$$$$$$$$$$$$.",
"%&*************%",
"%=-------------%",
"%;>>>>>>>>>>>>;,",
",';;;;;;;;;;;;',",
",)))))))))))))),",
",!~~~~~~~~~~~~!,",
",!!!!!!!!!!!!!!,",
",{{{{{{{{{{{{{{]",
",^////////////^]",
"(,]]]]]]]]]]]]]_",
"::::::::::::::::"};
