/* XPM */
static char * shade_inactive_xpm[] = {
"23 16 40 1",
" 	c None",
".	c #DFDFDF",
"+	c #BABABA",
"@	c #999999",
"#	c #959595",
"$	c #B6B6B6",
"%	c #BDBDBD",
"&	c #E4E4E4",
"*	c #E8E8E8",
"=	c #B7B7B7",
"-	c #E3E3E3",
";	c #E5E5E5",
">	c #E2E2E2",
",	c #969696",
"'	c #949494",
")	c #E1E1E1",
"!	c #E0E0E0",
"~	c #7C7C7C",
"{	c #939393",
"]	c #DEDEDE",
"^	c #7B7B7B",
"/	c #7A7A7A",
"(	c #DDDDDD",
"_	c #DCDCDC",
":	c #787878",
"<	c #DBDBDB",
"[	c #DADADA",
"}	c #D3D3D3",
"|	c #929292",
"1	c #D9D9D9",
"2	c #D7D7D7",
"3	c #D8D8D8",
"4	c #D6D6D6",
"5	c #B9B9B9",
"6	c #B4B4B4",
"7	c #D4D4D4",
"8	c #BCBCBC",
"9	c #E6E6E6",
"0	c #EDEDED",
"a	c #EEEEEE",
" +@#################@+ ",
"$%&*****************&%=",
"#-;&&&&&&&&&&&&&&&&&;>,",
"'---------------------'",
"'>>>>>>>>>>>>>>>>>>>>>'",
"')))))))))))))))))))))'",
"'!!!!!!!!))~))!!!!!!!!'",
"{]]]]]]]]!^/^!]]]]]]]]{",
"{((((((((/]/]/(((((((({",
"{________((:((________{",
"{<<<<<<<<__:__<<<<<<<<{",
"{[[[[[[[[}}}}}[[[[[[[[{",
"|111111111111111111111|",
"{233333333333333333334'",
"56722222222222222222765",
" 8#|||||||||||||||||#8 "};
