/* XPM */
static char * shade_prelight_xpm[] = {
"23 16 48 1",
" 	c None",
".	c #DCEFEF",
"+	c #B7B7B7",
"@	c #979797",
"#	c #939393",
"$	c #B5B5B5",
"%	c #BBBBBB",
"&	c #E2E2EE",
"*	c #E6EEEE",
"=	c #B6B6B6",
"-	c #949494",
";	c #E1E1EE",
">	c #E2EEEE",
",	c #E1EEEE",
"'	c #E0E0EE",
")	c #959595",
"!	c #E0EEEE",
"~	c #E0EFEF",
"{	c #929292",
"]	c #DEEFEF",
"^	c #DDEFEF",
"/	c #797979",
"(	c #919191",
"_	c #DBEFEF",
":	c #787878",
"<	c #777777",
"[	c #DAEFEF",
"}	c #767676",
"|	c #D8EFEF",
"1	c #747474",
"2	c #D7EFEF",
"3	c #737373",
"4	c #D5EFEF",
"5	c #CDF0F0",
"6	c #909090",
"7	c #D4EFEF",
"8	c #D2EFEF",
"9	c #D3EFEF",
"0	c #B1B1B1",
"a	c #D0F0F0",
"b	c #B8B8B8",
"c	c #E0E0E0",
"d	c #BABABA",
"e	c #8F8F8F",
"f	c #DFDFEF",
"g	c #E4EEEE",
"h	c #EDEEEE",
"i	c #EEEEEE",
" +@#################@+ ",
"$%&*****************&%=",
"-;>,,,,,,,,,,,,,,,,,>')",
"#!!!!!!!!!!!!!!!!!!!!!#",
"#~~~~~~~~~~~~~~~~~~~~~#",
"{]]]]]]]]]]]]]]]]]]]]]{",
"{^^^^^^^^]]/]]^^^^^^^^{",
"(________^:<:^________(",
"([[[[[[[[<_}_<[[[[[[[[(",
"(||||||||[[1[[||||||||(",
"(22222222||3||22222222(",
"(444444445555544444444(",
"67777777777777777777776",
"(899999999999999999998{",
"+0a88888888888888888a0b",
" d#eeeeeeeeeeeeeeeee#d "};
