/* XPM */
static char * shade_toggled_active_xpm[] = {
"16 16 34 1",
" 	c None",
".	c #C0C0C0",
"+	c #FCFCFC",
"@	c #FBFBFB",
"#	c #F9F9F9",
"$	c #F7F7F7",
"%	c #BFBFBF",
"&	c #F5F5F5",
"*	c #F4F4F4",
"=	c #F2F2F2",
"-	c #F1F1F1",
";	c #BDBDBD",
">	c #F0F0F0",
",	c #EFEFEF",
"'	c #EEEEEE",
")	c #EDEDED",
"!	c #ECECEC",
"~	c #EBEBEB",
"{	c #BBBBBB",
"]	c #EAEAEA",
"^	c #E9E9E9",
"/	c #E6E6E6",
"(	c #BABABA",
"_	c #E4E4E4",
":	c #E3E3E3",
"<	c #B8B8B8",
"[	c #E2E2E2",
"}	c #E1E1E1",
"|	c #E0E0E0",
"1	c #B7B7B7",
"2	c #DFDFDF",
"3	c #DEDEDE",
"4	c #C9C9C9",
"5	c #C8C8C8",
".+@@@@@@@@@@@@+.",
".##############.",
".$$$$$$$$$$$$$$.",
"%&************&%",
"%=------------=%",
";>,,,,,,,,,,,,>;",
";'))))))))))))';",
";!~~~~~~~~~~~~~{",
"{]^^^^^^^^^^^^^{",
"{//////////////(",
"(_:::::::::::::<",
"([}}}}}}}}}}}}[<",
"<||||||||||||||1",
"<233333333333331",
"4<11111111111115",
"''''''''''''''''"};
