/* XPM */
static char * shade_pressed_xpm[] = {
"23 16 55 1",
" 	c None",
".	c #DCE0E2",
"+	c #B7BABC",
"@	c #979A9B",
"#	c #939697",
"$	c #B5B8B8",
"%	c #BBBEBE",
"&	c #E2E4E5",
"*	c #E6E9E9",
"=	c #B6B9B9",
"-	c #949697",
";	c #E1E3E5",
">	c #E2E5E7",
",	c #E1E4E6",
"'	c #E0E2E4",
")	c #959798",
"!	c #939596",
"~	c #E0E3E5",
"{	c #929496",
"]	c #DEE2E3",
"^	c #DDE1E2",
"/	c #797E7F",
"(	c #919495",
"_	c #DBE0E2",
":	c #787D7F",
"<	c #777C7D",
"[	c #DADFE1",
"}	c #777C7E",
"|	c #767C7D",
"1	c #D8DDE0",
"2	c #74797C",
"3	c #919394",
"4	c #D7DCDF",
"5	c #73787C",
"6	c #D5DBDE",
"7	c #CDD4D8",
"8	c #909394",
"9	c #D4DADD",
"0	c #D2D8DB",
"a	c #D3D9DC",
"b	c #D2D8DA",
"c	c #929596",
"d	c #B7B9BA",
"e	c #B1B6B7",
"f	c #D0D5D8",
"g	c #B8BABA",
"h	c #E0E0E1",
"i	c #BABCBD",
"j	c #939698",
"k	c #8F9294",
"l	c #DFE1E2",
"m	c #E4E6E8",
"n	c #E6E8E9",
"o	c #EDEEEE",
"p	c #EEEEEE",
" +@#################@+ ",
"$%&*****************&%=",
"-;>,,,,,,,,,,,,,,,,,>')",
"!~~~~~~~~~~~~~~~~~~~~~!",
"!'''''''''''''''''''''!",
"{]]]]]]]]]]]]]]]]]]]]]{",
"{^^^^^^^^]]/]]^^^^^^^^{",
"(________^:<:^________(",
"([[[[[[[[}_|_}[[[[[[[[(",
"(11111111[[2[[11111111(",
"34444444411511444444443",
"36666666677777666666663",
"89999999999999999999998",
"(0aaaaaaaaaaaaaaaaaaabc",
"def00000000000000000feg",
" ijkkkkkkkkkkkkkkkkkji "};
