/* XPM */
static char * shade_active_xpm[] = {
"23 16 54 1",
" 	c None",
".	c #DCE0E2",
"+	c #B7BABC",
"@	c #979A9B",
"#	c #939697",
"$	c #B5B9B9",
"%	c #BBBEBE",
"&	c #E2E4E5",
"*	c #E6E9E9",
"=	c #B6BABA",
"-	c #949697",
";	c #E1E3E5",
">	c #E2E5E7",
",	c #E1E4E6",
"'	c #E0E2E4",
")	c #959798",
"!	c #939596",
"~	c #E0E3E5",
"{	c #929496",
"]	c #DEE2E4",
"^	c #DDE1E3",
"/	c #797E80",
"(	c #919495",
"_	c #DBE0E2",
":	c #787D7F",
"<	c #777C7E",
"[	c #DADFE1",
"}	c #767C7E",
"|	c #D8DDE0",
"1	c #74797D",
"2	c #919394",
"3	c #D7DCDF",
"4	c #73787C",
"5	c #D5DBDE",
"6	c #CDD5D9",
"7	c #909394",
"8	c #D4DADD",
"9	c #D2D8DB",
"0	c #D3D9DC",
"a	c #D2D8DA",
"b	c #929596",
"c	c #B7B9BA",
"d	c #B1B6B8",
"e	c #D0D6D9",
"f	c #B8BABA",
"g	c #E0E1E2",
"h	c #BABCBD",
"i	c #939698",
"j	c #8F9294",
"k	c #DFE1E3",
"l	c #E4E7E8",
"m	c #E6E8E9",
"n	c #EDEEEE",
"o	c #EEEEEE",
" +@#################@+ ",
"$%&*****************&%=",
"-;>,,,,,,,,,,,,,,,,,>')",
"!~~~~~~~~~~~~~~~~~~~~~!",
"!~~~~~~~~~~~~~~~~~~~~~!",
"{]]]]]]]]]]]]]]]]]]]]]{",
"{^^^^^^^^]]/]]^^^^^^^^{",
"(________^:<:^________(",
"([[[[[[[[<_}_<[[[[[[[[(",
"(||||||||[[1[[||||||||(",
"233333333||4||333333332",
"25555555566666555555552",
"78888888888888888888887",
"(90000000000000000000ab",
"cde99999999999999999edf",
" hijjjjjjjjjjjjjjjjjih "};
