/* XPM */
static char * shade_toggled_active_xpm[] = {
"23 16 53 1",
" 	c None",
".	c #DCE0E2",
"+	c #B7BABC",
"@	c #979A9B",
"#	c #939697",
"$	c #B5B9B9",
"%	c #BBBEBE",
"&	c #E2E4E5",
"*	c #E6E9E9",
"=	c #B6BABA",
"-	c #949697",
";	c #E1E3E5",
">	c #E2E5E7",
",	c #E1E4E6",
"'	c #E0E2E4",
")	c #959798",
"!	c #939596",
"~	c #E0E3E5",
"{	c #929496",
"]	c #DEE2E4",
"^	c #DDE1E3",
"/	c #767B7E",
"(	c #919495",
"_	c #DBE0E2",
":	c #757A7D",
"<	c #DADFE1",
"[	c #777C7E",
"}	c #767C7E",
"|	c #D8DDE0",
"1	c #919394",
"2	c #D7DCDF",
"3	c #757B7E",
"4	c #D5DBDE",
"5	c #CDD5D9",
"6	c #909394",
"7	c #D4DADD",
"8	c #D2D8DB",
"9	c #D3D9DC",
"0	c #D2D8DA",
"a	c #929596",
"b	c #B7B9BA",
"c	c #B1B6B8",
"d	c #D0D6D9",
"e	c #B8BABA",
"f	c #E0E1E2",
"g	c #BABCBD",
"h	c #939698",
"i	c #8F9294",
"j	c #DFE1E3",
"k	c #E4E7E8",
"l	c #E6E8E9",
"m	c #EDEEEE",
"n	c #EEEEEE",
" +@#################@+ ",
"$%&*****************&%=",
"-;>,,,,,,,,,,,,,,,,,>')",
"!~~~~~~~~~~~~~~~~~~~~~!",
"!~~~~~~~~~~~~~~~~~~~~~!",
"{]]]]]]]]]]]]]]]]]]]]]{",
"{^^^^^^^^]]/]]^^^^^^^^{",
"(________^^:^^________(",
"(<<<<<<<<[_}_[<<<<<<<<(",
"(||||||||<[}[<||||||||(",
"122222222||3||222222221",
"14444444455555444444441",
"67777777777777777777776",
"(899999999999999999990a",
"bcd88888888888888888dce",
" ghiiiiiiiiiiiiiiiiihg "};
