/* XPM */
static char * shade_toggled_prelight_xpm[] = {
"23 16 45 1",
" 	c None",
".	c #DCEFEF",
"+	c #B7B7B7",
"@	c #979797",
"#	c #939393",
"$	c #B5B5B5",
"%	c #BBBBBB",
"&	c #E2E2EE",
"*	c #E6EEEE",
"=	c #B6B6B6",
"-	c #949494",
";	c #E1E1EE",
">	c #E2EEEE",
",	c #E1EEEE",
"'	c #E0E0EE",
")	c #959595",
"!	c #E0EEEE",
"~	c #E0EFEF",
"{	c #929292",
"]	c #DEEFEF",
"^	c #DDEFEF",
"/	c #767676",
"(	c #919191",
"_	c #DBEFEF",
":	c #757575",
"<	c #DAEFEF",
"[	c #777777",
"}	c #D8EFEF",
"|	c #D7EFEF",
"1	c #D5EFEF",
"2	c #CDF0F0",
"3	c #909090",
"4	c #D4EFEF",
"5	c #D2EFEF",
"6	c #D3EFEF",
"7	c #B1B1B1",
"8	c #D0F0F0",
"9	c #B8B8B8",
"0	c #E0E0E0",
"a	c #BABABA",
"b	c #8F8F8F",
"c	c #DFDFEF",
"d	c #E4EEEE",
"e	c #EDEEEE",
"f	c #EEEEEE",
" +@#################@+ ",
"$%&*****************&%=",
"-;>,,,,,,,,,,,,,,,,,>')",
"#!!!!!!!!!!!!!!!!!!!!!#",
"#~~~~~~~~~~~~~~~~~~~~~#",
"{]]]]]]]]]]]]]]]]]]]]]{",
"{^^^^^^^^]]/]]^^^^^^^^{",
"(________^^:^^________(",
"(<<<<<<<<[_/_[<<<<<<<<(",
"(}}}}}}}}<[/[<}}}}}}}}(",
"(||||||||}}:}}||||||||(",
"(111111112222211111111(",
"34444444444444444444443",
"(566666666666666666665{",
"+7855555555555555555879",
" a#bbbbbbbbbbbbbbbbb#a "};
