/* XPM */
static char * shade_toggled_pressed_xpm[] = {
"16 16 31 1",
" 	c None",
".	c #9179D1",
"+	c #C9C1E0",
"@	c #C7C0E0",
"#	c #8F78D1",
"$	c #CAC3E1",
"%	c #CDC6E1",
"&	c #CCC4E1",
"*	c #CEC6E1",
"=	c #D3CCE4",
"-	c #8C73CF",
";	c #D5CFE5",
">	c #D4CEE4",
",	c #D7D2E5",
"'	c #D6D1E5",
")	c #D9D6E6",
"!	c #D8D4E6",
"~	c #8971CE",
"{	c #DCD8E7",
"]	c #DFDBE8",
"^	c #DEDAE8",
"/	c #E3E0EA",
"(	c #E0DDE9",
"_	c #8770CE",
":	c #E6E3EB",
"<	c #866ECD",
"[	c #EBE9EE",
"}	c #E9E8ED",
"|	c #A08CD7",
"1	c #9F8AD6",
"2	c #EEEEEE",
".+@@@@@@@@@@@@@.",
"#$$$$$$$$$$$$$$#",
"#%&&&&&&&&&&&&%#",
"#**************#",
"#==============#",
"-;>>>>>>>>>>>>>-",
"-,'''''''''''''-",
"-)!!!!!!!!!!!!)~",
"~{)))))))))))){~",
"~]^^^^^^^^^^^^]~",
"~/((((((((((((/_",
"~//////////////_",
"_::::::::::::::<",
"_[}}}}}}}}}}}}[<",
"|_<<<<<<<<<<<<<1",
"2222222222222222"};
