/* XPM */
static char * shade_toggled_inactive_xpm[] = {
"23 16 38 1",
" 	c None",
".	c #DFDFDF",
"+	c #BABABA",
"@	c #999999",
"#	c #959595",
"$	c #B6B6B6",
"%	c #BDBDBD",
"&	c #E4E4E4",
"*	c #E8E8E8",
"=	c #B7B7B7",
"-	c #E3E3E3",
";	c #E5E5E5",
">	c #E2E2E2",
",	c #969696",
"'	c #949494",
")	c #E1E1E1",
"!	c #E0E0E0",
"~	c #7A7A7A",
"{	c #939393",
"]	c #DEDEDE",
"^	c #797979",
"/	c #DDDDDD",
"(	c #DCDCDC",
"_	c #DBDBDB",
":	c #DADADA",
"<	c #D3D3D3",
"[	c #929292",
"}	c #D9D9D9",
"|	c #D7D7D7",
"1	c #D8D8D8",
"2	c #D6D6D6",
"3	c #B9B9B9",
"4	c #B4B4B4",
"5	c #D4D4D4",
"6	c #BCBCBC",
"7	c #E6E6E6",
"8	c #EDEDED",
"9	c #EEEEEE",
" +@#################@+ ",
"$%&*****************&%=",
"#-;&&&&&&&&&&&&&&&&&;>,",
"'---------------------'",
"'>>>>>>>>>>>>>>>>>>>>>'",
"')))))))))))))))))))))'",
"'!!!!!!!!))~))!!!!!!!!'",
"{]]]]]]]]!!^!!]]]]]]]]{",
"{////////~]~]~////////{",
"{((((((((/~~~/(((((((({",
"{________((^((________{",
"{::::::::<<<<<::::::::{",
"[}}}}}}}}}}}}}}}}}}}}}[",
"{|11111111111111111112'",
"345|||||||||||||||||543",
" 6#[[[[[[[[[[[[[[[[[#6 "};
