/* XPM */
static char * title_1_inactive_xpm[] = {
"8 19 3 1",
" 	c None",
".	c #CACACA",
"+	c #EEEEEE",
"........",
"++++++++",
"++++++++",
"++++++++",
"++++++++",
"++++++++",
"++++++++",
"++++++++",
"++++++++",
"++++++++",
"++++++++",
"++++++++",
"++++++++",
"++++++++",
"++++++++",
"++++++++",
"++++++++",
"++++++++",
"++++++++"};
