/* XPM */
static char * title_1_active_xpm[] = {
"8 21 13 1",
" 	c None",
".	c #BFBFBF",
"+	c #F8F8F8",
"@	c #F7F7F7",
"#	c #F6F6F6",
"$	c #F5F5F5",
"%	c #F4F4F4",
"&	c #F3F3F3",
"*	c #F2F2F2",
"=	c #F1F1F1",
"-	c #F0F0F0",
";	c #EFEFEF",
">	c #EEEEEE",
"        ",
"        ",
"........",
"++++++++",
"@@@@@@@@",
"@@@@@@@@",
"########",
"$$$$$$$$",
"$$$$$$$$",
"%%%%%%%%",
"&&&&&&&&",
"&&&&&&&&",
"********",
"========",
"========",
"--------",
";;;;;;;;",
";;;;;;;;",
">>>>>>>>",
">>>>>>>>",
">>>>>>>>"};
