/* XPM */
static char * title_5_active_xpm[] = {
"8 21 3 1",
" 	c None",
".	c #CCCCCC",
"+	c #EEEEEE",
"........",
"++++++++",
"++++++++",
"++++++++",
"++++++++",
"++++++++",
"++++++++",
"++++++++",
"++++++++",
"++++++++",
"++++++++",
"++++++++",
"++++++++",
"++++++++",
"++++++++",
"++++++++",
"++++++++",
"++++++++",
"++++++++",
"++++++++",
"++++++++"};
