/* XPM */
static char * top_left_inactive_xpm[] = {
"8 21 4 1",
" 	c None",
".	c #CACACA",
"+	c #E6E6E6",
"@	c #EEEEEE",
"        ",
"        ",
"       .",
"      ..",
"      .+",
"      .+",
"      .@",
"      .@",
"      .@",
"      .@",
"      .@",
"      .@",
"      .@",
"      .@",
"      .@",
"      .@",
"      .@",
"      .@",
"      .@",
"      .@",
"      .@"};
