/* XPM */
static char * top_right_inactive_xpm[] = {
"2 25 4 1",
" 	c None",
".	c #CACACA",
"+	c #E6E6E6",
"@	c #EEEEEE",
". ",
"..",
"+.",
"+.",
"@.",
"@.",
"@.",
"@.",
"@.",
"@.",
"@.",
"@.",
"@.",
"@.",
"@.",
"@.",
"@.",
"@.",
"@.",
"@.",
"@.",
"@.",
"@.",
"@.",
"@."};
