/* XPM */
static char * top_left_inactive_xpm[] = {
"8 21 5 1",
" 	c None",
".	c #CCCCCC",
"+	c #D0D0D0",
"@	c #E6E6E6",
"#	c #EEEEEE",
"       .",
"      .+",
"      .@",
"      .@",
"      .#",
"      .#",
"      .#",
"      .#",
"      .#",
"      .#",
"      .#",
"      .#",
"      .#",
"      .#",
"      .#",
"      .#",
"      .#",
"      .#",
"      .#",
"      .#",
"      .#"};
